:FULLY-SPECIFIED
:FORCE-ALL-JOINTS-BE-3DOF
:DEGREES
170
root 6.57926 16.13 -25.6772 3.95497 31.3158 1.14278
lfemur -26.0108 30.2845 -16.7549
ltibia 40.2487 0 0
lfoot -7.52444 7.67282 0
ltoes 20.5806 0 0
rfemur -22.0752 -5.03147 -4.90743
rtibia 65.0708 0 0
rfoot 5.95385 -27.8387 0
rtoes 46.277 0 0
lowerback 1.50047 -5.63374 -1.5327
upperback -0.050947 -7.54874 -2.13533
thorax -0.929319 -3.76337 -1.14751
lowerneck -9.72425 -7.32179 -1.72907
upperneck 1.79893 -9.82097 5.47944
head 2.65784 -4.71874 1.52892
lclavicle -1.981e-14 -4.6636e-15 0
lhumerus -49.145 -41.4175 115.007
lradius 52.0141 0 0
lwrist 13.8535 0 0
lhand 37.9112 25.7003 0
lfingers 7.12502 0 0
lthumb 60.6468 38.8189 0
rclavicle -1.981e-14 -4.6636e-15 0
rhumerus -50.3251 -15.709 -79.236
rradius 91.8999 0 0
rwrist -11.6315 0 0
rhand -32.6116 -28.1699 0
rfingers 7.12502 0 0
rthumb -5.79729 -418.591 0
171
root 6.51724 16.1312 -25.6527 4.09082 30.583 1.15279
lfemur -25.8048 29.2291 -15.3226
ltibia 40.5288 0 0
lfoot -8.34594 5.06967 0
ltoes 16.2005 0 0
rfemur -20.7263 -4.7112 -5.16183
rtibia 62.0519 0 0
rfoot 4.04844 -28.3501 0
rtoes 46.3035 0 0
lowerback 1.13835 -5.25213 -1.32633
upperback -0.0692224 -7.02887 -2.43301
thorax -0.78366 -3.50459 -1.60388
lowerneck -9.73367 -7.40849 -1.41161
upperneck 1.85724 -9.97828 5.4926
head 2.66458 -4.79167 1.46808
lclavicle -3.07156e-14 -9.80301e-15 0
lhumerus -49.7047 -41.6802 115.253
lradius 52.0411 0 0
lwrist 14.0036 0 0
lhand 38.1341 26.0255 0
lfingers 7.12502 0 0
lthumb 60.8365 38.9383 0
rclavicle -3.07156e-14 -9.80301e-15 0
rhumerus -50.487 -13.2854 -81.0192
rradius 91.9341 0 0
rwrist -10.2866 0 0
rhand -31.6529 -27.9919 0
rfingers 7.12502 0 0
rthumb -4.85875 -418.55 0
172
root 6.44568 16.1336 -25.626 4.21238 29.6435 1.14739
lfemur -25.4632 27.9036 -13.5719
ltibia 40.7806 0 0
lfoot -9.3429 1.98951 0
ltoes 11.1599 0 0
rfemur -19.4426 -4.5212 -5.30928
rtibia 58.8074 0 0
rfoot 1.89276 -28.6453 0
rtoes 45.8838 0 0
lowerback 0.756797 -4.80593 -1.10528
upperback -0.0750456 -6.42295 -2.77559
thorax -0.614948 -3.20287 -2.1164
lowerneck -9.76016 -7.4769 -1.02711
upperneck 1.92727 -10.1197 5.50206
head 2.67352 -4.8556 1.39498
lclavicle -4.4115e-14 -1.57424e-14 0
lhumerus -50.3022 -41.966 115.434
lradius 52.0498 0 0
lwrist 14.1722 0 0
lhand 38.349 26.3689 0
lfingers 7.12502 0 0
lthumb 61.0183 39.076 0
rclavicle -4.4115e-14 -1.57424e-14 0
rhumerus -50.7369 -10.3482 -83.0914
rradius 92.0602 0 0
rwrist -8.64058 0 0
rhand -29.9437 -27.5283 0
rfingers 7.12502 0 0
rthumb -3.19912 -418.169 0
173
root 6.36657 16.1361 -25.5978 4.31732 28.5145 1.13301
lfemur -24.9588 26.3158 -11.5714
ltibia 40.9282 0 0
lfoot -10.4713 -1.43514 0
ltoes 5.8439 0 0
rfemur -18.2957 -4.48199 -5.35113
rtibia 55.4936 0 0
rfoot -0.440602 -28.6535 0
rtoes 45.0587 0 0
lowerback 0.369379 -4.31698 -0.882878
upperback -0.0690668 -5.76042 -3.15018
thorax -0.429573 -2.87286 -2.66285
lowerneck -9.80776 -7.51395 -0.592376
upperneck 2.00852 -10.2258 5.50566
head 2.68586 -4.90111 1.31294
lclavicle -5.91661e-14 -2.21901e-14 0
lhumerus -50.9096 -42.2576 115.534
lradius 52.0443 0 0
lwrist 14.3628 0 0
lhand 38.546 26.7237 0
lfingers 7.12502 0 0
lthumb 61.1839 39.2346 0
rclavicle -5.91661e-14 -2.21901e-14 0
rhumerus -51.0728 -6.96436 -85.3118
rradius 92.3312 0 0
rwrist -6.79821 0 0
rhand -27.4816 -26.7676 0
rfingers 7.12502 0 0
rthumb -0.81801 -417.413 0
174
root 6.28208 16.137 -25.5691 4.40971 27.2285 1.12205
lfemur -24.2666 24.4828 -9.42134
ltibia 40.8754 0 0
lfoot -11.668 -5.02741 0
ltoes 0.763624 0 0
rfemur -17.3288 -4.58951 -5.31703
rtibia 52.2637 0 0
rfoot -2.87469 -28.3271 0
rtoes 43.9641 0 0
lowerback -0.01435 -3.81387 -0.673403
upperback -0.0550337 -5.07939 -3.54146
thorax -0.235311 -2.53355 -3.21834
lowerneck -9.8798 -7.50682 -0.131405
upperneck 2.1005 -10.2768 5.50138
head 2.70326 -4.91865 1.22664
lclavicle -7.46245e-14 -2.87774e-14 0
lhumerus -51.5016 -42.5354 115.552
lradius 52.0351 0 0
lwrist 14.5831 0 0
lhand 38.7203 27.0888 0
lfingers 7.12502 0 0
lthumb 61.3294 39.4191 0
rclavicle -7.46245e-14 -2.87774e-14 0
rhumerus -51.4822 -3.22788 -87.4925
rradius 92.8107 0 0
rwrist -4.91299 0 0
rhand -24.354 -25.7347 0
rfingers 7.12502 0 0
rthumb 2.19836 -416.289 0
175
root 6.19459 16.1338 -25.5405 4.50006 25.8335 1.13285
lfemur -23.3644 22.4316 -7.25385
ltibia 40.5063 0 0
lfoot -12.8505 -8.56613 0
ltoes -3.44419 0 0
rfemur -16.5565 -4.81513 -5.26495
rtibia 49.268 0 0
rfoot -5.32817 -27.6411 0
rtoes 42.8313 0 0
lowerback -0.38887 -3.3319 -0.492029
upperback -0.0397905 -4.42661 -3.93175
thorax -0.0413258 -2.20828 -3.75533
lowerneck -9.97893 -7.44302 0.324589
upperneck 2.20267 -10.2525 5.48733
head 2.72783 -4.89856 1.14206
lclavicle -8.88428e-14 -3.5058e-14 0
lhumerus -52.0541 -42.7781 115.5
lradius 52.0388 0 0
lwrist 14.845 0 0
lhand 38.8721 27.469 0
lfingers 7.12502 0 0
lthumb 61.4553 39.6372 0
rclavicle -8.88428e-14 -3.5058e-14 0
rhumerus -51.9433 0.74048 -89.3986
rradius 93.5725 0 0
rwrist -3.18737 0 0
rhand -20.7385 -24.4907 0
rfingers 7.12502 0 0
rthumb 5.6772 -414.843 0
176
root 6.10665 16.1236 -25.5126 4.6053 24.3927 1.18975
lfemur -22.2323 20.1988 -5.2329
ltibia 39.6847 0 0
lfoot -13.9172 -11.7858 0
ltoes -6.01699 0 0
rfemur -15.965 -5.10562 -5.28114
rtibia 46.654 0 0
rfoot -7.71536 -26.5938 0
rtoes 41.9873 0 0
lowerback -0.75269 -2.91312 -0.354852
upperback -0.0332791 -3.85752 -4.30098
thorax 0.141833 -1.92471 -4.24362
lowerneck -10.1072 -7.3103 0.737193
upperneck 2.31451 -10.1325 5.46174
head 2.76213 -4.83105 1.06655
lclavicle -9.97714e-14 -4.05085e-14 0
lhumerus -52.5455 -42.9619 115.403
lradius 52.0779 0 0
lwrist 15.1645 0 0
lhand 39.0068 27.8751 0
lfingers 7.12502 0 0
lthumb 61.567 39.899 0
rclavicle -9.97714e-14 -4.05085e-14 0
rhumerus -52.4241 4.79309 -90.7477
rradius 94.7009 0 0
rwrist -1.87275 0 0
rhand -16.9022 -23.133 0
rfingers 7.12502 0 0
rthumb 9.35913 -413.163 0
177
root 6.02104 16.1025 -25.4859 4.74882 22.9848 1.32304
lfemur -20.8532 17.8302 -3.55422
ltibia 38.2546 0 0
lfoot -14.7473 -14.3766 0
ltoes -6.06648 0 0
rfemur -15.5118 -5.38319 -5.48015
rtibia 44.5662 0 0
rfoot -9.94619 -25.2064 0
rtoes 41.854 0 0
lowerback -1.10835 -2.60626 -0.278881
upperback -0.0485382 -3.43622 -4.62668
thorax 0.302226 -1.71484 -4.65037
lowerneck -10.2658 -7.09673 1.06079
upperneck 2.43545 -9.89567 5.42295
head 2.80915 -4.70623 1.00875
lclavicle -1.04958e-13 -4.45278e-14 0
lhumerus -52.9557 -43.0613 115.299
lradius 52.1813 0 0
lwrist 15.5618 0 0
lhand 39.1347 28.3237 0
lfingers 7.12502 0 0
lthumb 61.6741 40.2175 0
rclavicle -1.04958e-13 -4.45278e-14 0
rhumerus -52.8828 8.75544 -91.2104
rradius 96.2906 0 0
rwrist -1.2694 0 0
rhand -13.2023 -21.7955 0
rfingers 7.12502 0 0
rthumb 12.8982 -411.377 0
178
root 6.01015 16.0986 -25.4825 4.77183 22.8053 1.34926
lfemur -20.6409 17.4943 -3.37168
ltibia 37.9884 0 0
lfoot -14.8213 -14.6448 0
ltoes -5.75063 0 0
rfemur -15.4702 -5.41838 -5.52683
rtibia 44.3581 0 0
rfoot -10.2201 -24.9811 0
rtoes 41.9142 0 0
lowerback -1.1534 -2.57977 -0.277382
upperback -0.0530893 -3.39914 -4.6637
thorax 0.32039 -1.69638 -4.69272
lowerneck -10.291 -7.05907 1.09115
upperneck 2.45285 -9.85054 5.41685
head 2.81712 -4.68292 1.00371
lclavicle -1.04934e-13 -4.49102e-14 0
lhumerus -52.9974 -43.062 115.282
lradius 52.2026 0 0
lwrist 15.6204 0 0
lhand 39.1499 28.3876 0
lfingers 7.12502 0 0
lthumb 61.6869 40.2667 0
rclavicle -1.04934e-13 -4.49102e-14 0
rhumerus -52.9632 9.2807 -91.1891
rradius 96.5796 0 0
rwrist -1.26801 0 0
rhand -12.7207 -21.6091 0
rfingers 7.12502 0 0
rthumb 13.3574 -411.115 0
179
root 5.97949 16.0865 -25.473 4.83868 22.292 1.43173
lfemur -19.986 16.4758 -2.87513
ltibia 37.1207 0 0
lfoot -14.9839 -15.348 0
ltoes -4.44361 0 0
rfemur -15.3949 -5.53286 -5.66876
rtibia 43.8599 0 0
rfoot -10.9805 -24.2586 0
rtoes 42.1199 0 0
lowerback -1.27644 -2.51942 -0.286333
upperback -0.0676034 -3.31358 -4.7623
thorax 0.368968 -1.65379 -4.79802
lowerneck -10.3713 -6.93813 1.16307
upperneck 2.50558 -9.70235 5.39905
head 2.84268 -4.60672 0.992773
lclavicle -1.04114e-13 -4.59059e-14 0
lhumerus -53.0945 -43.044 115.218
lradius 52.2707 0 0
lwrist 15.7885 0 0
lhand 39.1863 28.5735 0
lfingers 7.12502 0 0
lthumb 61.7177 40.4171 0
rclavicle -1.04114e-13 -4.59059e-14 0
rhumerus -53.2717 10.8391 -91.0923
rradius 97.5598 0 0
rwrist -1.32587 0 0
rhand -11.2691 -21.0129 0
rfingers 7.12502 0 0
rthumb 14.7402 -410.274 0
180
root 5.93208 16.0659 -25.4583 4.94531 21.4846 1.57357
lfemur -18.8804 14.7883 -2.13863
ltibia 35.5888 0 0
lfoot -15.1653 -16.3464 0
ltoes -1.75055 0 0
rfemur -15.3499 -5.73659 -5.90483
rtibia 43.2356 0 0
rfoot -12.1368 -22.9963 0
rtoes 42.4989 0 0
lowerback -1.46025 -2.4494 -0.321211
upperback -0.0927187 -3.21218 -4.90562
thorax 0.439871 -1.60334 -4.93839
lowerneck -10.5098 -6.72635 1.25295
upperneck 2.5929 -9.43826 5.37006
head 2.88707 -4.47144 0.980921
lclavicle -1.01628e-13 -4.72894e-14 0
lhumerus -53.212 -42.9847 115.09
lradius 52.3889 0 0
lwrist 16.0558 0 0
lhand 39.2326 28.8702 0
lfingers 7.12502 0 0
lthumb 61.7567 40.6686 0
rclavicle -1.01628e-13 -4.72894e-14 0
rhumerus -53.867 13.366 -90.8638
rradius 99.3297 0 0
rwrist -1.52204 0 0
rhand -8.87323 -19.9817 0
rfingers 7.12502 0 0
rthumb 17.0203 -408.812 0
181
root 5.87097 16.0369 -25.4396 5.08652 20.4249 1.77432
lfemur -17.3414 12.4857 -1.23286
ltibia 33.3854 0 0
lfoot -15.3204 -17.5162 0
ltoes 2.5311 0 0
rfemur -15.3846 -6.03502 -6.2287
rtibia 42.6156 0 0
rfoot -13.5996 -21.1881 0
rtoes 43.0654 0 0
lowerback -1.68895 -2.38792 -0.391231
upperback -0.128203 -3.11966 -5.07925
thorax 0.526057 -1.55732 -5.09236
lowerneck -10.7055 -6.42212 1.34417
upperneck 2.71197 -9.05394 5.33003
head 2.94994 -4.27516 0.971386
lclavicle -9.69354e-14 -4.88378e-14 0
lhumerus -53.3247 -42.8718 114.893
lradius 52.5566 0 0
lwrist 16.4127 0 0
lhand 39.2798 29.2635 0
lfingers 7.12502 0 0
lthumb 61.7964 41.0153 0
rclavicle -9.69354e-14 -4.88378e-14 0
rhumerus -54.7516 16.7452 -90.4382
rradius 101.894 0 0
rwrist -1.91685 0 0
rhand -5.60644 -18.5313 0
rfingers 7.12502 0 0
rthumb 20.1268 -406.744 0
182
root 5.79923 15.9999 -25.418 5.25607 19.1567 2.03001
lfemur -15.4118 9.66186 -0.225091
ltibia 30.5582 0 0
lfoot -15.4297 -18.7493 0
ltoes 8.41151 0 0
rfemur -15.5341 -6.42912 -6.6288
rtibia 42.0971 0 0
rfoot -15.2813 -18.8642 0
rtoes 43.8197 0 0
lowerback -1.94799 -2.34718 -0.499351
upperback -0.172953 -3.05283 -5.27125
thorax 0.621527 -1.52412 -5.24478
lowerneck -10.9526 -6.02972 1.42703
upperneck 2.85789 -8.55357 5.27876
head 3.02937 -4.02029 0.965661
lclavicle -8.98308e-14 -5.03307e-14 0
lhumerus -53.4171 -42.7029 114.625
lradius 52.7694 0 0
lwrist 16.8507 0 0
lhand 39.3217 29.7353 0
lfingers 7.12502 0 0
lthumb 61.8316 41.4452 0
rclavicle -8.98308e-14 -5.03307e-14 0
rhumerus -55.8712 20.8091 -89.7406
rradius 105.161 0 0
rwrist -2.55197 0 0
rhand -1.5899 -16.7178 0
rfingers 7.12502 0 0
rthumb 23.9435 -404.138 0
183
root 5.71998 15.9557 -25.3948 5.4466 17.7264 2.33312
lfemur -13.1599 6.45069 0.820793
ltibia 27.2101 0 0
lfoot -15.4988 -19.9541 0
ltoes 15.7085 0 0
rfemur -15.8193 -6.91533 -7.08833
rtibia 41.7436 0 0
rfoot -17.0953 -16.0911 0
rtoes 44.7491 0 0
lowerback -2.22411 -2.33342 -0.642272
upperback -0.224995 -3.02062 -5.47214
thorax 0.721328 -1.50817 -5.38691
lowerneck -11.2409 -5.55934 1.49878
upperneck 3.02365 -7.94983 5.2157
head 3.1218 -3.71349 0.963497
lclavicle -8.04408e-14 -5.15506e-14 0
lhumerus -53.4833 -42.4861 114.297
lradius 53.0192 0 0
lwrist 17.3625 0 0
lhand 39.3548 30.2645 0
lfingers 7.12502 0 0
lthumb 61.8593 41.9407 0
rclavicle -8.04408e-14 -5.15506e-14 0
rhumerus -57.1151 25.3385 -88.6867
rradius 108.948 0 0
rwrist -3.45035 0 0
rhand 3.00748 -14.6387 0
rfingers 7.12502 0 0
rthumb 28.309 -401.116 0
